<svg width="140.5" height="142.438" xmlns="http://www.w3.org/2000/svg" version="1.1" fill="#b10000" enable-background="new 0 0 328.067 142.438" xml:space="preserve">
 <g>
  <title>Layer 1</title>
  <path fill="#b10000" d="m112.06,72.625c0.159,-0.802 0.502,-3.085 -0.655,-5.569c-1.465,-3.145 -4.273,-4.333 -4.914,-4.586c-1.019,-0.764 -2.037,-1.528 -3.055,-2.292c-5.414,-7.739 -10.396,-9.933 -13.98,-10.485c-3.618,-0.557 -5.311,0.636 -13.432,0c-1.604,-0.125 -4.045,-0.369 -7.535,-0.328c-2.478,0.029 -4.519,0.19 -5.897,0.328c3.276,1.529 6.552,3.057 9.828,4.586c-2.054,-0.15 -4.962,-0.08 -8.189,0.983c-7.946,2.616 -11.774,9.252 -12.777,11.138c0.541,-0.52 2.991,-2.763 6.552,-2.621c1.59,0.063 2.837,0.579 3.604,0.983c-1.564,0.857 -5.652,3.369 -8.19,8.518c-2.057,4.174 -2.075,8.012 -1.965,9.828c0.393,-2.249 1.842,-3.941 3.604,-4.259c0.947,-0.171 1.776,0.094 2.292,0.328c-1.326,3.857 -2.463,9.222 -1.638,15.397c0.946,7.077 4.126,12.667 4.362,12.588c0.109,-0.036 -0.484,-1.258 -0.104,-2.76c0.347,-1.367 1.349,-2.366 2.396,-3.088c0.294,0.916 0.694,2.024 1.246,3.252c0.698,1.553 1.638,3.296 2.91,5.077c4.661,6.524 9.283,7.256 12.122,12.12c1.591,2.728 2.894,7.22 0.959,14.755c0.977,-1.725 2.412,-4.718 2.829,-8.582c1.646,-15.26 -15.031,-21.605 -17.875,-40.571c-0.477,-3.182 -2.067,-13.789 4.586,-21.949c7.239,-8.878 19.359,-8.883 21.622,-8.846c1.452,0.289 3.55,0.9 5.732,2.293c1.157,0.738 2.075,1.528 2.784,2.237c-0.459,0.213 -2.01,0.86 -3.93,0.384c-2.248,-0.558 -3.371,-2.251 -3.604,-2.621c-2.136,0.304 -7.832,1.421 -12.122,6.224c-5.403,6.05 -6.367,15.473 -2.426,23.882c0.458,-9.192 6.273,-17.12 14.547,-19.951c10.618,-3.628 19.615,3.069 20.313,3.607" id="svg_1"/>
  <path fill="#b10000" d="m79.955,60.832c-7.764,3.978 -10.548,9.364 -11.466,11.466c-4.98,11.407 2.262,23.986 3.62,26.345c2.897,5.033 4.901,5.604 8.882,13.036c2.564,4.788 4.25,8.013 4.533,12.38c0.445,6.839 -2.818,12.355 -4.966,15.286c7.734,-6.361 9.994,-12.19 10.562,-16.462c2.415,-18.177 -22.892,-30.187 -20.009,-47.964c1.033,-6.373 5.296,-11.065 8.844,-14.087" id="svg_2"/>
  <path fill="#b10000" d="m89.043,73.994c-0.962,1.927 -2.191,5.068 -1.966,8.845c0.557,9.308 9.357,12.627 11.466,21.949c0.742,3.28 0.892,8.348 -2.621,15.397c0.042,-4.276 -0.55,-10.645 -4.259,-16.708c-4.117,-6.731 -9.076,-8.183 -10.156,-13.431c-0.663,-3.23 0.046,-8.367 7.536,-16.052" id="svg_3"/>
  <path fill="#b10000" d="m129.273,34.777c0.565,1.599 11.215,33.234 -7.744,54.202c-6.234,6.895 -13.633,10.384 -19.019,12.203c0.743,3.038 2.396,11.529 -1.377,21.224c-4.104,10.543 -12.018,15.807 -14.6,17.377c2.749,-0.701 37.285,-10.154 49.443,-44.856c10.763,-30.715 -4.592,-56.712 -6.703,-60.15" id="svg_4"/>
  <path fill="#b10000" d="m119.83,23.825c-3.283,-4.022 -9.553,-10.574 -19.421,-14.971c-5.65,-2.518 -20.169,-8.987 -35.252,-2.167c-17.821,8.058 -21.436,27.89 -21.812,30.169c-1.829,11.06 1.39,20 3.116,23.976c-0.303,-17.712 9.662,-34.058 25.495,-41.823c15.507,-7.605 34.104,-5.733 47.874,4.816" id="svg_5"/>
  <path fill="#b10000" d="m70.893,119.574c2.065,1.252 3.309,2.688 4.063,3.804c5.183,7.669 -0.594,18.217 -0.875,18.716c-3.956,0.454 -9.702,0.659 -16.413,-0.698c-5.859,-1.185 -10.528,-3.171 -13.812,-4.877c2.035,0.151 12.591,0.733 20.664,-6.96c3.708,-3.534 5.5,-7.487 6.373,-9.985" id="svg_6"/>
  <path fill="#b10000" d="m61.292,107.745c0.247,1.089 0.788,2.822 2.06,4.603c1.697,2.374 3.79,3.565 4.874,4.088c-1.184,2.269 -5.44,9.732 -14.542,13.336c-10.72,4.246 -20.349,0.092 -22.662,-0.991c-5.375,-2.517 -8.807,-5.789 -12.187,-9.211c-4.901,-4.961 -7.974,-9.904 -9.813,-13.365c5.963,2.937 18.732,8.146 34.847,6.286c7.136,-0.823 13.031,-2.814 17.423,-4.746" id="svg_7"/>
  <path fill="#b10000" d="m51.892,85.989c-0.642,1.323 -1.621,3.803 -1.576,7.02c0.066,4.69 2.271,7.984 3.152,9.167c-3.529,1.621 -13.134,5.458 -25.279,3.233c-15.29,-2.8 -23.859,-13.238 -25.938,-15.927c-1.388,-5.362 -2.822,-13.495 -2.02,-23.345c0.69,-8.478 2.802,-15.346 4.687,-20.119c0.026,1.527 0.78,24.004 19.447,35.171c11.847,7.089 23.916,5.435 27.527,4.8" id="svg_8"/>
  <path fill="#b10000" d="m50.961,68.785c-0.754,0.914 -1.863,2.502 -2.507,4.741c-0.936,3.253 -0.353,6.009 -0.011,7.238c-3.026,-0.048 -16.285,-0.595 -26.628,-11.048c-14.96,-15.118 -9.631,-36.614 -9.349,-37.676c3.131,-4.499 7.786,-10.11 14.457,-15.363c12.113,-9.539 24.535,-12.911 31.577,-14.239c-21.269,16.061 -29.294,38.707 -22.096,53.256c1.398,2.827 5.035,8.711 14.557,13.091" id="svg_9"/>
 </g>

</svg>