<?xml version="1.0" encoding="utf-8"?>
<!-- Generator: Adobe Illustrator 21.1.0, SVG Export Plug-In . SVG Version: 6.00 Build 0)  -->
<svg version="1.1" id="Layer_1" xmlns="http://www.w3.org/2000/svg" xmlns:xlink="http://www.w3.org/1999/xlink" x="0px" y="0px"
	 viewBox="0 0 598 335.7" style="enable-background:new 0 0 598 335.7;" xml:space="preserve">
<style type="text/css">
	.st0{fill:#ED7905;}
</style>
<g>
	<path class="st0" d="M46.1,107.7v9.8h28.6v-9.8c0-23.6,19.2-42.9,42.9-42.9c23.6,0,42.9,19.2,42.9,42.9v70.7h28.6v-70.7
		c0-39.4-32.1-71.5-71.5-71.5C78.2,36.2,46.1,68.3,46.1,107.7z"/>
	<path class="st0" d="M141.4,219.6c0,13-10.6,23.6-23.6,23.6c-13,0-23.6-10.6-23.6-23.6c0-13.1,10.6-23.6,23.6-23.6
		C130.8,196,141.4,206.6,141.4,219.6z"/>
	<path class="st0" d="M33.2,219.4c0,46.5,37.8,84.3,84.3,84.3c46.5,0,84.3-37.8,84.3-84.3c0-46.5-37.8-84.3-84.3-84.3
		C71,135,33.2,172.9,33.2,219.4z M61.8,219.4c0-30.7,25-55.7,55.7-55.7c30.7,0,55.7,25,55.7,55.7c0,30.7-25,55.7-55.7,55.7
		C86.8,275.1,61.8,250.1,61.8,219.4z"/>
</g>
<g>
	<g>
		<path d="M274.6,154.2c-17,0-27-12.9-27-29.2c0-17.2,11.1-30.1,27.9-30.1c17.6,0,27.3,13.2,27.3,29.1
			C302.8,142.9,291.5,154.2,274.6,154.2L274.6,154.2z M275.2,143.9c8.8,0,13.8-8.3,13.8-19.5c0-10.3-4.9-19.2-13.8-19.2
			c-9,0-14,8.7-14,19.4C261.3,135.5,266.5,143.9,275.2,143.9L275.2,143.9z"/>
		<path d="M314.4,96.6c4-0.7,9.6-1.2,17.5-1.2c8,0,13.8,1.5,17.6,4.7c3.7,2.8,6.1,7.6,6.1,13.2c0,5.7-1.8,10.5-5.2,13.6
			c-4.4,4.1-11.1,6.1-18.7,6.1c-1.7,0-3.2-0.1-4.4-0.3v20.6h-12.9V96.6z M327.3,122.7c1.1,0.3,2.5,0.3,4.3,0.3
			c6.9,0,11.2-3.5,11.2-9.3c0-5.3-3.6-8.4-10.1-8.4c-2.6,0-4.4,0.2-5.4,0.4V122.7z"/>
		<path d="M401.1,129H380v13.6h23.6v10.7H367V95.8h35.4v10.7H380v11.9h21.1V129z"/>
		<path d="M418.8,153.3V95.8H434l11.9,21c3.4,6.1,6.7,13.2,9.4,19.7h0.2c-0.8-7.6-1-15.3-1-24V95.8h11.9v57.4h-13.6l-12.3-22.2
			c-3.4-6.2-7.2-13.6-10-20.3h-0.3c0.4,7.7,0.6,15.8,0.6,25.1v17.3H418.8z"/>
	</g>
	<g>
		<path d="M265.1,229.3l-4,14.7h-13.5l17.5-57.4h17l17.9,57.4h-14l-4.4-14.7H265.1z M279.7,219.6l-3.6-12.2c-0.9-3.4-2-7.8-2.8-11.1
			H273c-0.8,3.4-1.7,7.8-2.6,11.1l-3.5,12.2H279.7z"/>
		<path d="M349,242.6c-2.3,1.1-7.8,2.5-14.7,2.5c-19.9,0-30.1-12.4-30.1-28.9c0-19.6,14-30.4,31.4-30.4c6.7,0,11.8,1.4,14.1,2.6
			l-2.7,10.2c-2.6-1.1-6.2-2.1-10.9-2.1c-10.2,0-18.2,6.2-18.2,19.1c0,11.5,6.8,18.7,18.3,18.7c4,0,8.3-0.8,10.9-1.9L349,242.6z"/>
		<path d="M400.1,242.6c-2.3,1.1-7.7,2.5-14.7,2.5c-19.9,0-30.1-12.4-30.1-28.9c0-19.6,14-30.4,31.4-30.4c6.7,0,11.8,1.4,14.1,2.6
			l-2.7,10.2c-2.6-1.1-6.2-2.1-10.9-2.1c-10.2,0-18.2,6.2-18.2,19.1c0,11.5,6.8,18.7,18.3,18.7c4,0,8.3-0.8,10.9-1.9L400.1,242.6z"
			/>
		<path d="M449.3,219.8h-21.1v13.6h23.6v10.7h-36.6v-57.4h35.4v10.7h-22.4v11.9h21.1V219.8z"/>
		<path d="M467.4,230.8c3.4,1.8,8.9,3.6,14.4,3.6c6,0,9.1-2.5,9.1-6.3c0-3.5-2.7-5.6-9.6-8c-9.5-3.4-15.8-8.7-15.8-17.1
			c0-9.8,8.3-17.2,21.7-17.2c6.6,0,11.2,1.3,14.7,2.9l-2.9,10.4c-2.2-1.1-6.4-2.7-11.9-2.7c-5.6,0-8.4,2.6-8.4,5.5
			c0,3.7,3.2,5.3,10.7,8.2c10.1,3.8,14.8,9,14.8,17.2c0,9.6-7.3,17.8-23.1,17.8c-6.6,0-13-1.8-16.3-3.6L467.4,230.8z"/>
		<path d="M516.5,230.8c3.4,1.8,8.9,3.6,14.4,3.6c6,0,9.1-2.5,9.1-6.3c0-3.5-2.7-5.6-9.6-8c-9.5-3.4-15.8-8.7-15.8-17.1
			c0-9.8,8.3-17.2,21.7-17.2c6.6,0,11.2,1.3,14.6,2.9L548,199c-2.2-1.1-6.4-2.7-11.9-2.7c-5.6,0-8.4,2.6-8.4,5.5
			c0,3.7,3.2,5.3,10.6,8.2c10.1,3.8,14.8,9,14.8,17.2c0,9.6-7.3,17.8-23.1,17.8c-6.6,0-13-1.8-16.3-3.6L516.5,230.8z"/>
	</g>
</g>
</svg>
