<?xml version="1.0" encoding="utf-8"?>
<!-- Generator: Adobe Illustrator 21.1.0, SVG Export Plug-In . SVG Version: 6.00 Build 0)  -->
<svg version="1.1"
	 id="svg2" inkscape:version="0.91 r13725" sodipodi:docname="logo_v.svg" xmlns:cc="http://creativecommons.org/ns#" xmlns:dc="http://purl.org/dc/elements/1.1/" xmlns:inkscape="http://www.inkscape.org/namespaces/inkscape" xmlns:rdf="http://www.w3.org/1999/02/22-rdf-syntax-ns#" xmlns:sodipodi="http://sodipodi.sourceforge.net/DTD/sodipodi-0.dtd" xmlns:svg="http://www.w3.org/2000/svg"
	 xmlns="http://www.w3.org/2000/svg" xmlns:xlink="http://www.w3.org/1999/xlink" x="0px" y="0px" viewBox="0 0 433.8 254.8"
	 style="enable-background:new 0 0 433.8 254.8;" xml:space="preserve">
<style type="text/css">
	.st0{fill:#F08A00;}
	.st1{fill:#1E73B7;}
	.st2{fill:url(#path172_1_);}
	.st3{fill:url(#path206_1_);}
	.st4{fill:#FFFFFF;}
</style>
<g id="g10" transform="matrix(1.25,0,0,-1.25,0,254.84)" inkscape:groupmode="layer" inkscape:label="logo_v">
	<g id="g14">
		<path id="path22" inkscape:connector-curvature="0" class="st0" d="M15.1,57.8L15.1,57.8l-4.8-15.4h9.5L15.1,57.8z M30.6,31.2
			c0.2-0.7,0.3-1.2,0.4-1.6c0.1-0.4,0-0.7-0.2-0.9c-0.2-0.2-0.5-0.3-1-0.4c-0.5,0-1.2-0.1-2-0.1c-0.9,0-1.6,0-2.1,0
			c-0.5,0-0.9,0.1-1.1,0.2c-0.3,0.1-0.4,0.2-0.5,0.4c-0.1,0.1-0.2,0.3-0.3,0.6l-2.3,7.3H8.8l-2.1-7.1c-0.1-0.3-0.2-0.5-0.3-0.7
			c-0.1-0.2-0.3-0.3-0.5-0.4c-0.3-0.1-0.6-0.2-1.1-0.2c-0.5,0-1.1-0.1-1.8-0.1c-0.8,0-1.4,0-1.9,0.1c-0.4,0.1-0.8,0.2-0.9,0.4
			C0,29,0,29.3,0,29.7c0.1,0.4,0.2,0.9,0.4,1.6l10.4,32.2c0.1,0.3,0.2,0.6,0.4,0.8c0.1,0.2,0.4,0.3,0.7,0.4c0.3,0.1,0.7,0.2,1.3,0.2
			c0.5,0,1.2,0,2.1,0c1,0,1.8,0,2.4,0c0.6,0,1.1-0.1,1.4-0.2c0.3-0.1,0.6-0.3,0.7-0.5c0.1-0.2,0.3-0.5,0.4-0.8L30.6,31.2z"/>
		<path id="path26" inkscape:connector-curvature="0" class="st0" d="M62.1,29.4c0-0.2-0.1-0.4-0.2-0.5c-0.1-0.1-0.3-0.3-0.6-0.4
			c-0.3-0.1-0.6-0.2-1-0.2c-0.4-0.1-1-0.1-1.6-0.1c-0.7,0-1.2,0-1.7,0.1c-0.4,0.1-0.8,0.1-1,0.2s-0.4,0.2-0.5,0.4
			c-0.1,0.2-0.2,0.3-0.2,0.5v14.7H42.7V29.4c0-0.2-0.1-0.4-0.2-0.5c-0.1-0.1-0.3-0.3-0.5-0.4c-0.3-0.1-0.6-0.2-1-0.2
			c-0.4-0.1-1-0.1-1.7-0.1c-0.7,0-1.2,0-1.7,0.1c-0.4,0.1-0.8,0.1-1.1,0.2c-0.3,0.1-0.4,0.2-0.6,0.4c-0.1,0.2-0.2,0.3-0.2,0.5v34.3
			c0,0.2,0.1,0.4,0.2,0.5c0.1,0.1,0.3,0.3,0.6,0.4c0.3,0.1,0.6,0.2,1.1,0.2s1,0.1,1.7,0.1c0.7,0,1.2,0,1.7-0.1
			c0.4-0.1,0.8-0.1,1-0.2c0.3-0.1,0.4-0.2,0.5-0.4c0.1-0.1,0.2-0.3,0.2-0.5V50.4h12.6v13.3c0,0.2,0.1,0.4,0.2,0.5
			c0.1,0.1,0.3,0.3,0.5,0.4c0.3,0.1,0.6,0.2,1,0.2c0.4,0.1,1,0.1,1.7,0.1c0.7,0,1.2,0,1.6-0.1c0.4-0.1,0.8-0.1,1-0.2
			c0.3-0.1,0.4-0.2,0.6-0.4c0.1-0.1,0.2-0.3,0.2-0.5V29.4z"/>
		<path id="path30" inkscape:connector-curvature="0" class="st0" d="M92.3,61.7c0-0.5,0-1-0.1-1.4c0-0.4-0.1-0.7-0.2-0.9
			c-0.1-0.2-0.2-0.4-0.3-0.5c-0.1-0.1-0.3-0.2-0.4-0.2h-8.4V29.4c0-0.2-0.1-0.4-0.2-0.5c-0.1-0.1-0.3-0.3-0.6-0.4s-0.6-0.2-1.1-0.2
			c-0.4-0.1-1-0.1-1.7-0.1c-0.7,0-1.2,0-1.7,0.1c-0.4,0.1-0.8,0.1-1.1,0.2c-0.3,0.1-0.4,0.2-0.6,0.4c-0.1,0.2-0.2,0.3-0.2,0.5v29.3
			h-8.4c-0.2,0-0.3,0.1-0.4,0.2c-0.1,0.1-0.2,0.3-0.3,0.5c-0.1,0.2-0.2,0.5-0.2,0.9c0,0.4-0.1,0.8-0.1,1.4c0,0.6,0,1,0.1,1.4
			c0,0.4,0.1,0.7,0.2,0.9c0.1,0.2,0.2,0.4,0.3,0.5c0.1,0.1,0.3,0.2,0.4,0.2h23.7c0.2,0,0.3-0.1,0.4-0.2c0.1-0.1,0.2-0.3,0.3-0.5
			c0.1-0.2,0.2-0.5,0.2-0.9C92.3,62.8,92.3,62.3,92.3,61.7"/>
		<path id="path34" inkscape:connector-curvature="0" class="st0" d="M124.2,29.4c0-0.2-0.1-0.4-0.2-0.5c-0.1-0.1-0.3-0.3-0.6-0.4
			c-0.3-0.1-0.6-0.2-1.1-0.2c-0.4,0-1-0.1-1.7-0.1c-0.7,0-1.2,0-1.7,0.1c-0.4,0-0.8,0.1-1,0.2c-0.3,0.1-0.4,0.2-0.5,0.4
			c-0.1,0.1-0.2,0.3-0.2,0.5v19.2c0,0.7,0,1.4,0,2.1c0,0.7,0,1.3,0.1,1.9h-0.1c-0.1-0.3-0.3-0.6-0.5-0.9c-0.2-0.3-0.4-0.7-0.6-1.1
			c-0.2-0.4-0.4-0.8-0.7-1.2c-0.2-0.4-0.5-0.8-0.7-1.2l-11.7-18.8c-0.1-0.2-0.3-0.4-0.4-0.5c-0.1-0.1-0.3-0.3-0.6-0.4
			c-0.2-0.1-0.5-0.1-0.9-0.2s-0.8,0-1.3,0c-0.7,0-1.2,0-1.6,0.1c-0.4,0-0.7,0.1-1,0.2c-0.2,0.1-0.4,0.2-0.5,0.4
			c-0.1,0.2-0.1,0.3-0.1,0.5v34.4c0,0.2,0.1,0.3,0.2,0.5c0.1,0.1,0.3,0.3,0.6,0.4c0.3,0.1,0.6,0.2,1.1,0.2c0.4,0,1,0.1,1.6,0.1
			c0.7,0,1.2,0,1.7-0.1c0.4,0,0.8-0.1,1-0.2c0.3-0.1,0.4-0.2,0.5-0.4s0.2-0.3,0.2-0.5V44.6c0-0.6,0-1.2,0-1.9c0-0.7,0-1.3-0.1-2h0.1
			c0.3,0.6,0.7,1.2,1.1,2c0.5,0.8,0.9,1.6,1.4,2.3l11.7,18.8c0.1,0.2,0.3,0.4,0.4,0.5c0.1,0.1,0.3,0.3,0.6,0.4s0.5,0.2,0.9,0.2
			c0.3,0,0.8,0.1,1.3,0.1c0.7,0,1.2,0,1.6-0.1c0.4,0,0.7-0.1,1-0.2c0.2-0.1,0.4-0.2,0.5-0.4c0.1-0.1,0.1-0.3,0.1-0.5V29.4z"/>
		<path id="path38" inkscape:connector-curvature="0" class="st1" d="M158.3,29.4c0-0.2-0.1-0.4-0.2-0.5c-0.1-0.1-0.3-0.3-0.5-0.4
			c-0.3-0.1-0.6-0.2-1.1-0.2c-0.4,0-1-0.1-1.7-0.1s-1.2,0-1.7,0.1c-0.4,0-0.8,0.1-1.1,0.2c-0.3,0.1-0.4,0.2-0.6,0.4
			c-0.1,0.1-0.2,0.3-0.2,0.5v29.2h-12.5V29.4c0-0.2-0.1-0.4-0.2-0.5c-0.1-0.1-0.3-0.3-0.6-0.4c-0.3-0.1-0.6-0.2-1-0.2
			c-0.4,0-1-0.1-1.7-0.1c-0.7,0-1.2,0-1.7,0.1c-0.4,0-0.8,0.1-1.1,0.2c-0.3,0.1-0.4,0.2-0.5,0.4c-0.1,0.1-0.2,0.3-0.2,0.5v33.1
			c0,0.8,0.2,1.4,0.5,1.8c0.4,0.4,0.8,0.6,1.5,0.6h22.2c0.6,0,1.1-0.2,1.5-0.6c0.3-0.4,0.5-1,0.5-1.8V29.4z"/>
		<path id="path42" inkscape:connector-curvature="0" class="st1" d="M192.3,29.4c0-0.2-0.1-0.4-0.2-0.5c-0.1-0.1-0.3-0.3-0.5-0.4
			c-0.3-0.1-0.6-0.2-1.1-0.2c-0.4,0-1-0.1-1.7-0.1c-0.7,0-1.2,0-1.7,0.1c-0.4,0-0.8,0.1-1,0.2c-0.3,0.1-0.4,0.2-0.5,0.4
			c-0.1,0.1-0.2,0.3-0.2,0.5v29.3h-7.2c-0.5-4.3-1-8-1.5-11.2c-0.5-3.2-1-5.9-1.6-8.2c-0.6-2.3-1.2-4.2-1.9-5.6s-1.5-2.6-2.3-3.5
			c-0.9-0.9-1.9-1.4-3-1.8c-1.1-0.3-2.4-0.5-3.8-0.5c-0.3,0-0.5,0-0.7,0.1c-0.2,0.1-0.3,0.2-0.5,0.4c-0.1,0.2-0.2,0.5-0.2,0.9
			c-0.1,0.4-0.1,0.9-0.1,1.4c0,0.8,0,1.5,0.1,2c0,0.5,0.1,0.9,0.2,1.2c0.1,0.3,0.2,0.5,0.3,0.5c0.1,0.1,0.3,0.1,0.5,0.1
			c0.5,0,1.1,0.1,1.5,0.4c0.5,0.2,1,0.7,1.4,1.4c0.5,0.7,0.9,1.7,1.3,2.9c0.4,1.3,0.8,2.9,1.2,5c0.4,2.1,0.8,4.5,1.2,7.5
			c0.4,2.9,0.8,6.5,1.2,10.5c0.1,1,0.3,1.6,0.6,2c0.3,0.4,0.8,0.6,1.4,0.6h16.5c0.6,0,1.1-0.2,1.4-0.6c0.3-0.4,0.5-1,0.5-1.8V29.4z"
			/>
		<path id="path46" inkscape:connector-curvature="0" class="st1" d="M212.3,57.8L212.3,57.8l-4.8-15.4h9.5L212.3,57.8z M227.8,31.2
			c0.2-0.7,0.3-1.2,0.4-1.6c0.1-0.4,0-0.7-0.2-0.9c-0.2-0.2-0.5-0.3-1-0.4c-0.5,0-1.2-0.1-2-0.1c-0.9,0-1.6,0-2.1,0
			c-0.5,0-0.9,0.1-1.1,0.2c-0.3,0.1-0.4,0.2-0.5,0.4c-0.1,0.1-0.2,0.3-0.3,0.6l-2.3,7.3H206l-2.1-7.1c-0.1-0.3-0.2-0.5-0.3-0.7
			c-0.1-0.2-0.3-0.3-0.5-0.4c-0.3-0.1-0.6-0.2-1.1-0.2c-0.5,0-1.1-0.1-1.8-0.1c-0.8,0-1.4,0-1.9,0.1c-0.4,0.1-0.8,0.2-0.9,0.4
			c-0.2,0.2-0.2,0.5-0.2,0.9c0.1,0.4,0.2,0.9,0.4,1.6L208,63.5c0.1,0.3,0.2,0.6,0.4,0.8c0.1,0.2,0.4,0.3,0.7,0.4
			c0.3,0.1,0.7,0.2,1.3,0.2c0.5,0,1.2,0,2.1,0c1,0,1.8,0,2.4,0c0.6,0,1.1-0.1,1.4-0.2c0.3-0.1,0.6-0.3,0.7-0.5s0.3-0.5,0.4-0.8
			L227.8,31.2z"/>
		<path id="path50" inkscape:connector-curvature="0" class="st1" d="M252.1,61.7c0-0.6,0-1-0.1-1.4c0-0.4-0.1-0.7-0.2-0.9
			c-0.1-0.2-0.2-0.4-0.3-0.5c-0.1-0.1-0.3-0.2-0.5-0.2h-11.2V29.4c0-0.2-0.1-0.4-0.2-0.5c-0.1-0.1-0.3-0.3-0.6-0.4
			c-0.3-0.1-0.6-0.2-1-0.2s-1-0.1-1.7-0.1c-0.7,0-1.2,0-1.7,0.1s-0.8,0.1-1.1,0.2c-0.3,0.1-0.4,0.2-0.6,0.4
			c-0.1,0.1-0.2,0.3-0.2,0.5v33.1c0,0.8,0.2,1.4,0.6,1.8c0.4,0.4,0.9,0.6,1.5,0.6h16c0.3,0,0.6-0.2,0.8-0.7
			C252,63.6,252.1,62.8,252.1,61.7"/>
		<path id="path54" inkscape:connector-curvature="0" class="st1" d="M283.9,29.4c0-0.2-0.1-0.4-0.2-0.5c-0.1-0.1-0.3-0.3-0.6-0.4
			c-0.3-0.1-0.6-0.2-1.1-0.2c-0.4,0-1-0.1-1.7-0.1c-0.7,0-1.2,0-1.7,0.1c-0.4,0-0.8,0.1-1,0.2c-0.3,0.1-0.4,0.2-0.5,0.4
			c-0.1,0.1-0.2,0.3-0.2,0.5v19.2c0,0.7,0,1.4,0,2.1c0,0.7,0,1.3,0.1,1.9h-0.1c-0.1-0.3-0.3-0.6-0.5-0.9c-0.2-0.3-0.4-0.7-0.6-1.1
			s-0.4-0.8-0.7-1.2c-0.2-0.4-0.5-0.8-0.7-1.2L263,29.4c-0.1-0.2-0.3-0.4-0.4-0.5c-0.1-0.1-0.3-0.3-0.6-0.4
			c-0.2-0.1-0.5-0.1-0.9-0.2c-0.3,0-0.8,0-1.3,0c-0.7,0-1.2,0-1.6,0.1c-0.4,0-0.7,0.1-1,0.2c-0.2,0.1-0.4,0.2-0.5,0.4
			c-0.1,0.2-0.1,0.3-0.1,0.5v34.4c0,0.2,0.1,0.3,0.2,0.5c0.1,0.1,0.3,0.3,0.6,0.4c0.3,0.1,0.6,0.2,1.1,0.2c0.4,0,1,0.1,1.6,0.1
			c0.7,0,1.2,0,1.7-0.1c0.4,0,0.8-0.1,1-0.2c0.3-0.1,0.4-0.2,0.5-0.4c0.1-0.1,0.2-0.3,0.2-0.5V44.6c0-0.6,0-1.2,0-1.9
			c0-0.7,0-1.3-0.1-2h0.1c0.3,0.6,0.7,1.2,1.1,2c0.5,0.8,0.9,1.6,1.4,2.3l11.7,18.8c0.1,0.2,0.3,0.4,0.4,0.5
			c0.1,0.1,0.3,0.3,0.6,0.4c0.2,0.1,0.5,0.2,0.9,0.2c0.3,0,0.8,0.1,1.3,0.1c0.7,0,1.2,0,1.6-0.1c0.4,0,0.7-0.1,1-0.2
			c0.2-0.1,0.4-0.2,0.5-0.4s0.1-0.3,0.1-0.5V29.4z"/>
		<path id="path58" inkscape:connector-curvature="0" class="st1" d="M303.9,57.8L303.9,57.8l-4.8-15.4h9.5L303.9,57.8z M319.4,31.2
			c0.2-0.7,0.3-1.2,0.4-1.6c0.1-0.4,0-0.7-0.2-0.9c-0.2-0.2-0.5-0.3-1-0.4c-0.5,0-1.2-0.1-2-0.1c-0.9,0-1.6,0-2.1,0
			c-0.5,0-0.9,0.1-1.1,0.2c-0.3,0.1-0.4,0.2-0.5,0.4c-0.1,0.1-0.2,0.3-0.3,0.6l-2.3,7.3h-12.6l-2.1-7.1c-0.1-0.3-0.2-0.5-0.3-0.7
			c-0.1-0.2-0.3-0.3-0.5-0.4c-0.3-0.1-0.6-0.2-1.1-0.2c-0.5,0-1.1-0.1-1.8-0.1c-0.8,0-1.4,0-1.9,0.1c-0.5,0.1-0.8,0.2-0.9,0.4
			c-0.2,0.2-0.2,0.5-0.2,0.9c0.1,0.4,0.2,0.9,0.4,1.6l10.4,32.2c0.1,0.3,0.2,0.6,0.4,0.8c0.1,0.2,0.4,0.3,0.7,0.4
			c0.3,0.1,0.7,0.2,1.3,0.2c0.5,0,1.2,0,2.1,0c1,0,1.8,0,2.4,0c0.6,0,1.1-0.1,1.4-0.2c0.3-0.1,0.6-0.3,0.7-0.5s0.3-0.5,0.4-0.8
			L319.4,31.2z"/>
		<path id="path62" inkscape:connector-curvature="0" class="st1" d="M347,61.7c0-0.5,0-1-0.1-1.4c0-0.4-0.1-0.7-0.2-0.9
			c-0.1-0.2-0.2-0.4-0.3-0.5c-0.1-0.1-0.3-0.2-0.4-0.2h-8.4V29.4c0-0.2-0.1-0.4-0.2-0.5c-0.1-0.1-0.3-0.3-0.6-0.4s-0.6-0.2-1.1-0.2
			c-0.4-0.1-1-0.1-1.7-0.1c-0.7,0-1.2,0-1.7,0.1c-0.4,0.1-0.8,0.1-1.1,0.2c-0.3,0.1-0.4,0.2-0.6,0.4c-0.1,0.2-0.2,0.3-0.2,0.5v29.3
			h-8.4c-0.2,0-0.3,0.1-0.4,0.2c-0.1,0.1-0.2,0.3-0.3,0.5c-0.1,0.2-0.2,0.5-0.2,0.9c0,0.4-0.1,0.8-0.1,1.4c0,0.6,0,1,0.1,1.4
			c0,0.4,0.1,0.7,0.2,0.9c0.1,0.2,0.2,0.4,0.3,0.5c0.1,0.1,0.3,0.2,0.4,0.2H346c0.2,0,0.3-0.1,0.4-0.2c0.1-0.1,0.2-0.3,0.3-0.5
			c0.1-0.2,0.2-0.5,0.2-0.9C347,62.8,347,62.3,347,61.7"/>
		<path id="path66" inkscape:connector-curvature="0" class="st1" d="M12,15.1c0-0.2,0-0.4,0-0.6c0-0.2,0-0.3-0.1-0.4
			c0-0.1-0.1-0.2-0.1-0.2c-0.1,0-0.1-0.1-0.2-0.1H7.6v-13c0-0.1,0-0.2-0.1-0.2C7.5,0.4,7.4,0.4,7.3,0.3C7.2,0.3,7,0.3,6.8,0.2
			c-0.2,0-0.5,0-0.8,0c-0.3,0-0.6,0-0.8,0C5.1,0.3,5,0.3,4.8,0.3c-0.1,0-0.2,0.1-0.3,0.2C4.5,0.6,4.5,0.7,4.5,0.7v13H0.7
			c-0.1,0-0.1,0-0.2,0.1c-0.1,0.1-0.1,0.1-0.1,0.2s-0.1,0.2-0.1,0.4c0,0.2,0,0.4,0,0.6c0,0.3,0,0.5,0,0.6c0,0.2,0.1,0.3,0.1,0.4
			c0,0.1,0.1,0.2,0.1,0.2c0.1,0,0.1,0.1,0.2,0.1h10.8c0.1,0,0.1,0,0.2-0.1c0.1,0,0.1-0.1,0.1-0.2c0-0.1,0.1-0.2,0.1-0.4
			C12,15.5,12,15.3,12,15.1"/>
		<path id="path70" inkscape:connector-curvature="0" class="st1" d="M21.9,5c0,0.4-0.1,0.7-0.2,1c-0.1,0.3-0.3,0.5-0.5,0.7
			s-0.5,0.4-0.9,0.5c-0.4,0.1-0.8,0.2-1.4,0.2h-1.9V2.8h2.3c0.4,0,0.8,0,1.1,0.1C20.7,3,21,3.2,21.2,3.4c0.2,0.2,0.4,0.4,0.5,0.7
			C21.9,4.3,21.9,4.6,21.9,5 M21.1,11.9c0,0.3,0,0.6-0.1,0.9c-0.1,0.3-0.2,0.5-0.4,0.6c-0.2,0.2-0.4,0.3-0.7,0.4
			c-0.3,0.1-0.7,0.1-1.2,0.1h-1.6V9.8h1.7c0.5,0,0.8,0.1,1.1,0.2c0.3,0.1,0.5,0.3,0.7,0.5c0.2,0.2,0.3,0.4,0.4,0.7
			C21.1,11.3,21.1,11.6,21.1,11.9 M25.2,5.1c0-0.6-0.1-1.1-0.2-1.6c-0.1-0.5-0.4-0.9-0.6-1.2c-0.3-0.4-0.6-0.7-1-0.9
			c-0.4-0.3-0.8-0.5-1.2-0.6c-0.4-0.2-0.9-0.3-1.4-0.4c-0.5-0.1-1.1-0.1-1.7-0.1H15c-0.3,0-0.5,0.1-0.7,0.2C14.1,0.7,14,1,14,1.3v14
			c0,0.4,0.1,0.6,0.3,0.8c0.2,0.2,0.4,0.2,0.7,0.2h3.9c0.9,0,1.7-0.1,2.4-0.2c0.7-0.2,1.2-0.4,1.7-0.8c0.4-0.3,0.8-0.8,1-1.3
			c0.2-0.5,0.4-1.1,0.4-1.8c0-0.4,0-0.8-0.1-1.1c-0.1-0.3-0.2-0.7-0.4-0.9C23.5,10,23.3,9.7,23,9.5c-0.3-0.2-0.6-0.4-0.9-0.5
			c0.4-0.1,0.8-0.2,1.2-0.4c0.4-0.2,0.7-0.5,1-0.8c0.3-0.3,0.5-0.7,0.6-1.2C25.1,6.2,25.2,5.7,25.2,5.1"/>
		<path id="path74" inkscape:connector-curvature="0" class="st1" d="M38.5,8.4c0,0.8-0.1,1.6-0.2,2.3c-0.1,0.7-0.3,1.3-0.6,1.8
			s-0.7,0.9-1.2,1.1c-0.5,0.3-1.1,0.4-1.9,0.4c-0.8,0-1.4-0.2-1.9-0.5c-0.5-0.3-0.9-0.7-1.2-1.2c-0.3-0.5-0.5-1.1-0.7-1.8
			c-0.1-0.7-0.2-1.4-0.2-2.1c0-0.9,0.1-1.7,0.2-2.4c0.1-0.7,0.3-1.3,0.6-1.8c0.3-0.5,0.7-0.9,1.2-1.1c0.5-0.3,1.1-0.4,1.9-0.4
			c0.8,0,1.4,0.2,1.9,0.4c0.5,0.3,0.9,0.7,1.2,1.2c0.3,0.5,0.5,1.1,0.7,1.8C38.4,6.9,38.5,7.6,38.5,8.4 M41.8,8.5
			c0-1.3-0.2-2.5-0.5-3.6C41,3.9,40.5,3,39.9,2.3c-0.6-0.7-1.4-1.3-2.3-1.7c-0.9-0.4-2-0.6-3.2-0.6c-1.2,0-2.2,0.2-3.1,0.5
			C30.3,0.8,29.6,1.3,29,2c-0.6,0.7-1,1.5-1.3,2.6c-0.3,1-0.4,2.3-0.4,3.7c0,1.3,0.2,2.5,0.5,3.5c0.3,1,0.8,1.9,1.4,2.7
			c0.6,0.7,1.4,1.3,2.3,1.7c0.9,0.4,2,0.6,3.2,0.6c1.2,0,2.2-0.2,3.1-0.5c0.9-0.3,1.6-0.8,2.2-1.5c0.6-0.7,1.1-1.5,1.4-2.5
			C41.6,11.1,41.8,9.9,41.8,8.5"/>
		<path id="path78" inkscape:connector-curvature="0" class="st1" d="M51.9,11.3c0,0.6-0.1,1-0.3,1.4c-0.2,0.4-0.4,0.6-0.7,0.8
			c-0.3,0.2-0.6,0.3-0.9,0.3c-0.3,0-0.6,0.1-0.9,0.1h-1.3V8.4h1.4c0.5,0,0.9,0.1,1.3,0.2C50.7,8.8,51,9,51.2,9.2
			c0.2,0.3,0.4,0.6,0.5,0.9C51.8,10.5,51.9,10.9,51.9,11.3 M55.2,11.5c0-0.9-0.1-1.7-0.4-2.4c-0.3-0.7-0.7-1.3-1.2-1.8
			c-0.5-0.5-1.1-0.8-1.9-1.1C50.9,6,50,5.9,49,5.9h-1.3V0.7c0-0.1,0-0.2-0.1-0.2c-0.1-0.1-0.1-0.1-0.3-0.2c-0.1,0-0.3-0.1-0.5-0.1
			c-0.2,0-0.5,0-0.8,0c-0.3,0-0.6,0-0.8,0c-0.2,0-0.4,0.1-0.5,0.1c-0.1,0-0.2,0.1-0.2,0.2c0,0.1-0.1,0.1-0.1,0.2v14.5
			c0,0.4,0.1,0.7,0.3,0.9c0.2,0.2,0.5,0.3,0.8,0.3h3.6c0.4,0,0.7,0,1,0c0.3,0,0.7-0.1,1.2-0.2c0.5-0.1,0.9-0.3,1.4-0.5
			c0.5-0.3,0.9-0.6,1.2-1c0.3-0.4,0.6-0.9,0.8-1.4C55.1,12.7,55.2,12.2,55.2,11.5"/>
		<path id="path82" inkscape:connector-curvature="0" class="st1" d="M70.3,0.7c0-0.1,0-0.2-0.1-0.2c-0.1-0.1-0.1-0.1-0.3-0.2
			c-0.1,0-0.3-0.1-0.5-0.1c-0.2,0-0.5,0-0.8,0c-0.3,0-0.6,0-0.8,0c-0.2,0-0.4,0.1-0.5,0.1c-0.1,0-0.2,0.1-0.2,0.2
			c0,0.1-0.1,0.1-0.1,0.2v8.5c0,0.3,0,0.6,0,1c0,0.3,0,0.6,0,0.8h0c-0.1-0.1-0.1-0.3-0.2-0.4c-0.1-0.2-0.2-0.3-0.3-0.5
			c-0.1-0.2-0.2-0.3-0.3-0.5c-0.1-0.2-0.2-0.4-0.3-0.5l-5.3-8.4c-0.1-0.1-0.1-0.2-0.2-0.2c-0.1-0.1-0.2-0.1-0.3-0.2
			c-0.1,0-0.2-0.1-0.4-0.1c-0.2,0-0.4,0-0.6,0c-0.3,0-0.6,0-0.7,0c-0.2,0-0.3,0.1-0.4,0.1c-0.1,0-0.2,0.1-0.2,0.2
			c0,0.1-0.1,0.1-0.1,0.2V16c0,0.1,0,0.2,0.1,0.2c0.1,0.1,0.1,0.1,0.3,0.2s0.3,0.1,0.5,0.1c0.2,0,0.4,0,0.7,0c0.3,0,0.6,0,0.8,0
			c0.2,0,0.4-0.1,0.5-0.1c0.1,0,0.2-0.1,0.2-0.2s0.1-0.1,0.1-0.2V7.4c0-0.3,0-0.5,0-0.8c0-0.3,0-0.6,0-0.9h0
			c0.1,0.2,0.3,0.5,0.5,0.9s0.4,0.7,0.6,1l5.3,8.4c0.1,0.1,0.1,0.2,0.2,0.2c0.1,0.1,0.1,0.1,0.3,0.2c0.1,0,0.2,0.1,0.4,0.1
			c0.2,0,0.4,0,0.6,0c0.3,0,0.5,0,0.7,0c0.2,0,0.3-0.1,0.4-0.1s0.2-0.1,0.2-0.2c0-0.1,0.1-0.1,0.1-0.2V0.7z"/>
		<path id="path86" inkscape:connector-curvature="0" class="st1" d="M84.2,15.1c0-0.2,0-0.4,0-0.6c0-0.2-0.1-0.3-0.1-0.4
			c0-0.1-0.1-0.2-0.1-0.2c-0.1,0-0.1-0.1-0.2-0.1h-3.9v-13c0-0.1,0-0.2-0.1-0.2c-0.1-0.1-0.1-0.1-0.3-0.2c-0.1,0-0.3-0.1-0.5-0.1
			c-0.2,0-0.5,0-0.8,0c-0.3,0-0.6,0-0.8,0c-0.2,0-0.4,0.1-0.5,0.1c-0.1,0-0.2,0.1-0.3,0.2c-0.1,0.1-0.1,0.1-0.1,0.2v13h-3.9
			c-0.1,0-0.1,0-0.2,0.1c-0.1,0.1-0.1,0.1-0.1,0.2c0,0.1-0.1,0.2-0.1,0.4c0,0.2,0,0.4,0,0.6c0,0.3,0,0.5,0,0.6
			c0,0.2,0.1,0.3,0.1,0.4c0,0.1,0.1,0.2,0.1,0.2c0.1,0,0.1,0.1,0.2,0.1h10.8c0.1,0,0.1,0,0.2-0.1c0.1,0,0.1-0.1,0.1-0.2
			c0-0.1,0.1-0.2,0.1-0.4C84.2,15.5,84.2,15.3,84.2,15.1"/>
		<path id="path90" inkscape:connector-curvature="0" class="st1" d="M95.3,1.6c0-0.2,0-0.4,0-0.6c0-0.2-0.1-0.3-0.1-0.4
			c0-0.1-0.1-0.2-0.1-0.2c-0.1,0-0.1-0.1-0.2-0.1h-7.7c-0.3,0-0.5,0.1-0.7,0.2c-0.2,0.2-0.3,0.4-0.3,0.8v14c0,0.4,0.1,0.6,0.3,0.8
			c0.2,0.2,0.4,0.2,0.7,0.2h7.7c0.1,0,0.1,0,0.2-0.1s0.1-0.1,0.1-0.2c0-0.1,0.1-0.2,0.1-0.4c0-0.2,0-0.4,0-0.6c0-0.2,0-0.4,0-0.6
			c0-0.2,0-0.3-0.1-0.4c0-0.1-0.1-0.2-0.1-0.2c-0.1,0-0.1-0.1-0.2-0.1h-5.5V9.9H94c0.1,0,0.1,0,0.2-0.1c0.1,0,0.1-0.1,0.1-0.2
			c0-0.1,0.1-0.2,0.1-0.4c0-0.2,0-0.4,0-0.6c0-0.2,0-0.4,0-0.6c0-0.2,0-0.3-0.1-0.4c0-0.1-0.1-0.2-0.1-0.2c-0.1,0-0.1-0.1-0.2-0.1
			h-4.6V2.9h5.5c0.1,0,0.1,0,0.2-0.1c0.1,0,0.1-0.1,0.1-0.2c0-0.1,0.1-0.2,0.1-0.4C95.3,2,95.3,1.8,95.3,1.6"/>
		<path id="path94" inkscape:connector-curvature="0" class="st1" d="M114.7,2.7c0-0.2,0-0.4,0-0.5c0-0.1,0-0.3-0.1-0.4
			c0-0.1-0.1-0.2-0.1-0.3c0-0.1-0.1-0.2-0.2-0.3c-0.1-0.1-0.3-0.2-0.5-0.4c-0.3-0.1-0.6-0.3-0.9-0.4c-0.4-0.1-0.8-0.3-1.2-0.3
			c-0.5-0.1-1-0.1-1.5-0.1c-1.1,0-2,0.2-2.9,0.5c-0.8,0.3-1.6,0.8-2.2,1.5c-0.6,0.7-1.1,1.5-1.4,2.5s-0.5,2.2-0.5,3.5
			c0,1.4,0.2,2.6,0.5,3.6c0.3,1.1,0.8,2,1.5,2.7c0.6,0.7,1.4,1.3,2.3,1.6c0.9,0.4,1.8,0.6,2.9,0.6c0.4,0,0.8,0,1.2-0.1
			c0.4-0.1,0.8-0.2,1.1-0.3c0.3-0.1,0.6-0.3,0.9-0.4c0.3-0.2,0.5-0.3,0.6-0.4c0.1-0.1,0.2-0.2,0.2-0.3c0-0.1,0.1-0.2,0.1-0.3
			c0-0.1,0-0.3,0.1-0.4c0-0.2,0-0.4,0-0.6c0-0.2,0-0.5,0-0.6c0-0.2,0-0.3-0.1-0.4c0-0.1-0.1-0.2-0.1-0.2c-0.1-0.1-0.1-0.1-0.2-0.1
			c-0.1,0-0.3,0.1-0.5,0.2c-0.2,0.1-0.4,0.3-0.7,0.5c-0.3,0.2-0.6,0.3-1,0.5c-0.4,0.1-0.9,0.2-1.4,0.2c-0.6,0-1.2-0.1-1.6-0.4
			c-0.5-0.3-0.9-0.6-1.2-1.1c-0.3-0.5-0.6-1.1-0.8-1.8c-0.2-0.7-0.3-1.5-0.3-2.3c0-0.9,0.1-1.8,0.3-2.5c0.2-0.7,0.5-1.3,0.8-1.7
			c0.3-0.4,0.8-0.8,1.2-1c0.5-0.2,1-0.3,1.6-0.3c0.6,0,1,0.1,1.4,0.2c0.4,0.1,0.8,0.3,1,0.5c0.3,0.2,0.5,0.3,0.7,0.4
			c0.2,0.1,0.3,0.2,0.4,0.2c0.1,0,0.1,0,0.2,0c0,0,0.1-0.1,0.1-0.2c0-0.1,0.1-0.2,0.1-0.4C114.7,3.3,114.7,3,114.7,2.7"/>
		<path id="path98" inkscape:connector-curvature="0" class="st1" d="M127.8,8.4c0,0.8-0.1,1.6-0.2,2.3c-0.1,0.7-0.3,1.3-0.6,1.8
			s-0.7,0.9-1.2,1.1c-0.5,0.3-1.1,0.4-1.9,0.4c-0.8,0-1.4-0.2-1.9-0.5c-0.5-0.3-0.9-0.7-1.2-1.2c-0.3-0.5-0.5-1.1-0.7-1.8
			c-0.1-0.7-0.2-1.4-0.2-2.1c0-0.9,0.1-1.7,0.2-2.4c0.1-0.7,0.3-1.3,0.6-1.8c0.3-0.5,0.7-0.9,1.2-1.1c0.5-0.3,1.1-0.4,1.9-0.4
			c0.8,0,1.4,0.2,1.9,0.4s0.9,0.7,1.2,1.2c0.3,0.5,0.5,1.1,0.7,1.8C127.7,6.9,127.8,7.6,127.8,8.4 M131.1,8.5c0-1.3-0.2-2.5-0.5-3.6
			c-0.3-1.1-0.8-1.9-1.4-2.7c-0.6-0.7-1.4-1.3-2.3-1.7c-0.9-0.4-2-0.6-3.2-0.6c-1.2,0-2.2,0.2-3.1,0.5c-0.9,0.3-1.6,0.8-2.2,1.5
			c-0.6,0.7-1,1.5-1.3,2.6c-0.3,1-0.4,2.3-0.4,3.7c0,1.3,0.2,2.5,0.5,3.5c0.3,1,0.8,1.9,1.4,2.7s1.4,1.3,2.3,1.7
			c0.9,0.4,2,0.6,3.2,0.6c1.2,0,2.2-0.2,3.1-0.5c0.9-0.3,1.6-0.8,2.2-1.5c0.6-0.7,1.1-1.5,1.4-2.5C130.9,11.1,131.1,9.9,131.1,8.5"
			/>
		<path id="path102" inkscape:connector-curvature="0" class="st1" d="M141.9,5.1c0,0.4-0.1,0.7-0.2,1c-0.1,0.3-0.3,0.5-0.5,0.7
			c-0.2,0.2-0.5,0.4-0.8,0.5c-0.3,0.1-0.8,0.2-1.3,0.2h-2V2.8h2c0.5,0,0.9,0,1.3,0.2c0.3,0.1,0.6,0.2,0.8,0.4
			c0.2,0.2,0.4,0.4,0.5,0.7C141.8,4.4,141.9,4.7,141.9,5.1 M145.1,5.3c0-0.7-0.1-1.4-0.4-2c-0.2-0.6-0.6-1.1-1.1-1.6
			c-0.5-0.4-1.1-0.8-1.8-1c-0.7-0.2-1.7-0.4-2.9-0.4h-4.1c-0.3,0-0.5,0.1-0.7,0.2c-0.2,0.2-0.3,0.4-0.3,0.8v14
			c0,0.4,0.1,0.6,0.3,0.8c0.2,0.2,0.4,0.2,0.7,0.2h8.7c0.1,0,0.1,0,0.2-0.1c0.1,0,0.1-0.1,0.2-0.2c0-0.1,0.1-0.2,0.1-0.4
			c0-0.2,0-0.4,0-0.6c0-0.2,0-0.4,0-0.6c0-0.2-0.1-0.3-0.1-0.4c0-0.1-0.1-0.2-0.2-0.2c-0.1,0-0.1-0.1-0.2-0.1h-6.5v-4h2.6
			c1,0,1.8-0.1,2.4-0.3c0.6-0.2,1.2-0.5,1.6-0.9c0.4-0.4,0.8-0.9,1-1.4C145,6.6,145.1,6,145.1,5.3"/>
		<path id="path106" inkscape:connector-curvature="0" class="st1" d="M158.3,2.7c0-0.2,0-0.4,0-0.5c0-0.1,0-0.3-0.1-0.4
			c0-0.1-0.1-0.2-0.1-0.3s-0.1-0.2-0.2-0.3c-0.1-0.1-0.3-0.2-0.5-0.4c-0.3-0.1-0.6-0.3-0.9-0.4c-0.4-0.1-0.8-0.3-1.2-0.3
			c-0.5-0.1-1-0.1-1.5-0.1c-1.1,0-2,0.2-2.9,0.5c-0.8,0.3-1.6,0.8-2.2,1.5c-0.6,0.7-1.1,1.5-1.4,2.5c-0.3,1-0.5,2.2-0.5,3.5
			c0,1.4,0.2,2.6,0.5,3.6c0.3,1.1,0.8,2,1.5,2.7c0.6,0.7,1.4,1.3,2.3,1.6c0.9,0.4,1.8,0.6,2.9,0.6c0.4,0,0.8,0,1.2-0.1
			c0.4-0.1,0.8-0.2,1.1-0.3c0.3-0.1,0.6-0.3,0.9-0.4c0.3-0.2,0.5-0.3,0.6-0.4c0.1-0.1,0.2-0.2,0.2-0.3c0-0.1,0.1-0.2,0.1-0.3
			c0-0.1,0-0.3,0.1-0.4c0-0.2,0-0.4,0-0.6c0-0.2,0-0.5,0-0.6c0-0.2,0-0.3-0.1-0.4c0-0.1-0.1-0.2-0.1-0.2c-0.1-0.1-0.1-0.1-0.2-0.1
			c-0.1,0-0.3,0.1-0.5,0.2c-0.2,0.1-0.4,0.3-0.7,0.5c-0.3,0.2-0.6,0.3-1,0.5c-0.4,0.1-0.9,0.2-1.4,0.2c-0.6,0-1.2-0.1-1.6-0.4
			c-0.5-0.3-0.9-0.6-1.2-1.1c-0.3-0.5-0.6-1.1-0.8-1.8c-0.2-0.7-0.3-1.5-0.3-2.3c0-0.9,0.1-1.8,0.3-2.5c0.2-0.7,0.5-1.3,0.8-1.7
			c0.3-0.4,0.8-0.8,1.2-1c0.5-0.2,1-0.3,1.6-0.3c0.6,0,1,0.1,1.4,0.2c0.4,0.1,0.8,0.3,1,0.5c0.3,0.2,0.5,0.3,0.7,0.4
			c0.2,0.1,0.3,0.2,0.4,0.2c0.1,0,0.1,0,0.2,0c0,0,0.1-0.1,0.1-0.2c0-0.1,0.1-0.2,0.1-0.4C158.3,3.3,158.3,3,158.3,2.7"/>
		<path id="path110" inkscape:connector-curvature="0" class="st1" d="M171.1,15.1c0-0.2,0-0.4,0-0.6c0-0.2,0-0.3-0.1-0.4
			c0-0.1-0.1-0.2-0.1-0.2c-0.1,0-0.1-0.1-0.2-0.1h-3.9v-13c0-0.1,0-0.2-0.1-0.2c0-0.1-0.1-0.1-0.3-0.2c-0.1,0-0.3-0.1-0.5-0.1
			c-0.2,0-0.5,0-0.8,0c-0.3,0-0.6,0-0.8,0c-0.2,0-0.4,0.1-0.5,0.1c-0.1,0-0.2,0.1-0.3,0.2c-0.1,0.1-0.1,0.1-0.1,0.2v13h-3.9
			c-0.1,0-0.1,0-0.2,0.1c-0.1,0.1-0.1,0.1-0.1,0.2c0,0.1-0.1,0.2-0.1,0.4c0,0.2,0,0.4,0,0.6c0,0.3,0,0.5,0,0.6c0,0.2,0,0.3,0.1,0.4
			c0,0.1,0.1,0.2,0.1,0.2c0.1,0,0.1,0.1,0.2,0.1h10.8c0.1,0,0.1,0,0.2-0.1c0.1,0,0.1-0.1,0.1-0.2c0-0.1,0.1-0.2,0.1-0.4
			C171.1,15.5,171.1,15.3,171.1,15.1"/>
		<path id="path114" inkscape:connector-curvature="0" class="st1" d="M181,5c0,0.4-0.1,0.7-0.2,1c-0.1,0.3-0.3,0.5-0.5,0.7
			c-0.2,0.2-0.5,0.4-0.9,0.5c-0.4,0.1-0.8,0.2-1.4,0.2h-1.9V2.8h2.3c0.4,0,0.8,0,1.1,0.1c0.3,0.1,0.6,0.2,0.8,0.4
			c0.2,0.2,0.4,0.4,0.5,0.7C181,4.3,181,4.6,181,5 M180.2,11.9c0,0.3,0,0.6-0.1,0.9c-0.1,0.3-0.2,0.5-0.4,0.6
			c-0.2,0.2-0.4,0.3-0.7,0.4c-0.3,0.1-0.7,0.1-1.2,0.1h-1.6V9.8h1.7c0.5,0,0.8,0.1,1.1,0.2c0.3,0.1,0.5,0.3,0.7,0.5
			c0.2,0.2,0.3,0.4,0.4,0.7C180.2,11.3,180.2,11.6,180.2,11.9 M184.3,5.1c0-0.6-0.1-1.1-0.2-1.6c-0.2-0.5-0.4-0.9-0.6-1.2
			c-0.3-0.4-0.6-0.7-1-0.9c-0.4-0.3-0.8-0.5-1.2-0.6c-0.4-0.2-0.9-0.3-1.4-0.4c-0.5-0.1-1.1-0.1-1.7-0.1h-4.1
			c-0.3,0-0.5,0.1-0.7,0.2c-0.2,0.2-0.3,0.4-0.3,0.8v14c0,0.4,0.1,0.6,0.3,0.8c0.2,0.2,0.4,0.2,0.7,0.2h3.9c0.9,0,1.7-0.1,2.4-0.2
			c0.7-0.2,1.2-0.4,1.7-0.8c0.4-0.3,0.8-0.8,1-1.3c0.2-0.5,0.4-1.1,0.4-1.8c0-0.4,0-0.8-0.1-1.1c-0.1-0.3-0.2-0.7-0.4-0.9
			c-0.2-0.3-0.4-0.5-0.7-0.7c-0.3-0.2-0.6-0.4-0.9-0.5c0.4-0.1,0.8-0.2,1.2-0.4c0.4-0.2,0.7-0.5,1-0.8c0.3-0.3,0.5-0.7,0.6-1.2
			C184.2,6.2,184.3,5.7,184.3,5.1"/>
		<path id="path118" inkscape:connector-curvature="0" class="st1" d="M196.1,1.6c0-0.2,0-0.4,0-0.6c0-0.2,0-0.3-0.1-0.4
			c0-0.1-0.1-0.2-0.1-0.2c-0.1,0-0.1-0.1-0.2-0.1h-7.7c-0.3,0-0.5,0.1-0.7,0.2C187.1,0.7,187,1,187,1.3v14c0,0.4,0.1,0.6,0.3,0.8
			c0.2,0.2,0.4,0.2,0.7,0.2h7.7c0.1,0,0.1,0,0.2-0.1c0.1,0,0.1-0.1,0.1-0.2c0-0.1,0.1-0.2,0.1-0.4c0-0.2,0-0.4,0-0.6
			c0-0.2,0-0.4,0-0.6c0-0.2,0-0.3-0.1-0.4c0-0.1-0.1-0.2-0.1-0.2c-0.1,0-0.1-0.1-0.2-0.1h-5.5V9.9h4.6c0.1,0,0.1,0,0.2-0.1
			c0.1,0,0.1-0.1,0.1-0.2c0-0.1,0.1-0.2,0.1-0.4c0-0.2,0-0.4,0-0.6c0-0.2,0-0.4,0-0.6c0-0.2,0-0.3-0.1-0.4c0-0.1-0.1-0.2-0.1-0.2
			c-0.1,0-0.1-0.1-0.2-0.1h-4.6V2.9h5.5c0.1,0,0.1,0,0.2-0.1c0.1,0,0.1-0.1,0.1-0.2c0-0.1,0.1-0.2,0.1-0.4
			C196.1,2,196.1,1.8,196.1,1.6"/>
		<path id="path122" inkscape:connector-curvature="0" class="st1" d="M211.1,0.7c0-0.1,0-0.2-0.1-0.2c-0.1-0.1-0.1-0.1-0.3-0.2
			c-0.1,0-0.3-0.1-0.5-0.1c-0.2,0-0.4,0-0.7,0c-0.3,0-0.6,0-0.8,0c-0.2,0-0.4,0.1-0.5,0.1c-0.1,0-0.2,0.1-0.3,0.2
			C208,0.6,208,0.7,208,0.7v6.5h-5.8V0.7c0-0.1,0-0.2-0.1-0.2c0-0.1-0.1-0.1-0.3-0.2c-0.1,0-0.3-0.1-0.5-0.1c-0.2,0-0.5,0-0.8,0
			c-0.3,0-0.6,0-0.8,0c-0.2,0-0.4,0.1-0.5,0.1c-0.1,0-0.2,0.1-0.3,0.2c-0.1,0.1-0.1,0.1-0.1,0.2v15.2c0,0.1,0,0.2,0.1,0.2
			c0.1,0.1,0.1,0.1,0.3,0.2c0.1,0,0.3,0.1,0.5,0.1c0.2,0,0.5,0,0.8,0c0.3,0,0.6,0,0.8,0c0.2,0,0.4-0.1,0.5-0.1
			c0.1,0,0.2-0.1,0.3-0.2s0.1-0.1,0.1-0.2V10h5.8v5.9c0,0.1,0,0.2,0.1,0.2c0.1,0.1,0.1,0.1,0.3,0.2c0.1,0,0.3,0.1,0.5,0.1
			c0.2,0,0.5,0,0.8,0c0.3,0,0.6,0,0.7,0c0.2,0,0.4-0.1,0.5-0.1c0.1,0,0.2-0.1,0.3-0.2c0.1-0.1,0.1-0.1,0.1-0.2V0.7z"/>
		<path id="path126" inkscape:connector-curvature="0" class="st1" d="M226.7,0.7c0-0.1,0-0.2-0.1-0.2c-0.1-0.1-0.1-0.1-0.3-0.2
			c-0.1,0-0.3-0.1-0.5-0.1c-0.2,0-0.4,0-0.7,0c-0.3,0-0.6,0-0.8,0c-0.2,0-0.4,0.1-0.5,0.1c-0.1,0-0.2,0.1-0.3,0.2
			c-0.1,0.1-0.1,0.1-0.1,0.2v6.5h-5.8V0.7c0-0.1,0-0.2-0.1-0.2c0-0.1-0.1-0.1-0.3-0.2c-0.1,0-0.3-0.1-0.5-0.1c-0.2,0-0.5,0-0.8,0
			c-0.3,0-0.6,0-0.8,0c-0.2,0-0.4,0.1-0.5,0.1c-0.1,0-0.2,0.1-0.3,0.2c-0.1,0.1-0.1,0.1-0.1,0.2v15.2c0,0.1,0,0.2,0.1,0.2
			c0.1,0.1,0.1,0.1,0.3,0.2c0.1,0,0.3,0.1,0.5,0.1c0.2,0,0.5,0,0.8,0c0.3,0,0.6,0,0.8,0c0.2,0,0.4-0.1,0.5-0.1
			c0.1,0,0.2-0.1,0.3-0.2c0-0.1,0.1-0.1,0.1-0.2V10h5.8v5.9c0,0.1,0,0.2,0.1,0.2c0.1,0.1,0.1,0.1,0.3,0.2c0.1,0,0.3,0.1,0.5,0.1
			c0.2,0,0.5,0,0.8,0c0.3,0,0.6,0,0.7,0c0.2,0,0.4-0.1,0.5-0.1c0.1,0,0.2-0.1,0.3-0.2c0.1-0.1,0.1-0.1,0.1-0.2V0.7z"/>
		<path id="path130" inkscape:connector-curvature="0" class="st1" d="M246.4,0.7c0-0.1,0-0.2-0.1-0.2c-0.1-0.1-0.1-0.1-0.3-0.2
			c-0.1,0-0.3-0.1-0.5-0.1c-0.2,0-0.5,0-0.8,0c-0.3,0-0.6,0-0.7,0c-0.2,0-0.4,0.1-0.5,0.1c-0.1,0-0.2,0.1-0.3,0.2
			c-0.1,0.1-0.1,0.1-0.1,0.2V16c0,0.1,0,0.2,0.1,0.2c0.1,0.1,0.1,0.1,0.3,0.2s0.3,0.1,0.5,0.1c0.2,0,0.4,0,0.7,0c0.3,0,0.6,0,0.8,0
			c0.2,0,0.4-0.1,0.5-0.1c0.1,0,0.2-0.1,0.3-0.2s0.1-0.1,0.1-0.2V0.7z M238.2,5.3c0,0.4-0.1,0.8-0.2,1.1c-0.1,0.3-0.3,0.6-0.5,0.8
			c-0.2,0.2-0.5,0.4-0.9,0.5c-0.4,0.1-0.9,0.2-1.6,0.2h-1.6V2.8h1.7c0.7,0,1.3,0.1,1.6,0.2c0.4,0.2,0.7,0.4,0.9,0.6
			c0.2,0.2,0.4,0.5,0.4,0.8C238.2,4.7,238.2,5,238.2,5.3 M241.4,5.6c0-0.8-0.1-1.5-0.3-2.1c-0.2-0.6-0.6-1.2-1.1-1.7
			c-0.5-0.5-1.1-0.9-1.9-1.1c-0.8-0.3-1.8-0.4-3.2-0.4h-3.6c-0.1,0-0.3,0-0.4,0.1c-0.1,0-0.2,0.1-0.3,0.2c-0.1,0.1-0.2,0.2-0.2,0.3
			c-0.1,0.1-0.1,0.3-0.1,0.5V16c0,0.1,0,0.2,0.1,0.2c0.1,0.1,0.1,0.1,0.3,0.2c0.1,0,0.3,0.1,0.5,0.1c0.2,0,0.4,0,0.7,0
			c0.3,0,0.6,0,0.8,0s0.4-0.1,0.5-0.1c0.1,0,0.2-0.1,0.2-0.2c0-0.1,0.1-0.1,0.1-0.2v-5.6h1.9c1.1,0,2.1-0.1,2.8-0.3
			c0.7-0.2,1.3-0.5,1.7-0.9c0.5-0.4,0.9-0.9,1.1-1.5C241.3,7.1,241.4,6.4,241.4,5.6"/>
		<path id="path134" inkscape:connector-curvature="0" class="st1" d="M267.9,0.7c0-0.1,0-0.2-0.1-0.2c0-0.1-0.1-0.1-0.2-0.2
			c-0.1,0-0.3-0.1-0.5-0.1c-0.2,0-0.4,0-0.7,0c-0.3,0-0.5,0-0.7,0c-0.2,0-0.3,0.1-0.5,0.1c-0.1,0-0.2,0.1-0.2,0.2
			c0,0.1-0.1,0.1-0.1,0.2v13.1h0l-4.5-13.1c0-0.1-0.1-0.2-0.2-0.3c-0.1-0.1-0.2-0.1-0.3-0.2c-0.1,0-0.3-0.1-0.5-0.1
			c-0.2,0-0.4,0-0.7,0c-0.3,0-0.5,0-0.7,0c-0.2,0-0.3,0.1-0.5,0.1c-0.1,0-0.2,0.1-0.3,0.2c-0.1,0.1-0.1,0.1-0.1,0.2L253,13.8h0V0.7
			c0-0.1,0-0.2-0.1-0.2c0-0.1-0.1-0.1-0.2-0.2c-0.1,0-0.3-0.1-0.5-0.1c-0.2,0-0.4,0-0.7,0c-0.3,0-0.5,0-0.7,0
			c-0.2,0-0.3,0.1-0.5,0.1c-0.1,0-0.2,0.1-0.2,0.2c0,0.1-0.1,0.1-0.1,0.2v14.4c0,0.4,0.1,0.7,0.3,1c0.2,0.2,0.5,0.3,0.9,0.3h2
			c0.4,0,0.7,0,0.9-0.1c0.3-0.1,0.5-0.2,0.7-0.3c0.2-0.1,0.3-0.3,0.5-0.6c0.1-0.2,0.2-0.5,0.3-0.9l3.3-9.6h0l3.4,9.6
			c0.1,0.3,0.2,0.6,0.3,0.9c0.1,0.2,0.3,0.4,0.4,0.6c0.2,0.1,0.4,0.3,0.6,0.3c0.2,0.1,0.5,0.1,0.8,0.1h2.1c0.2,0,0.4,0,0.6-0.1
			c0.2-0.1,0.3-0.1,0.4-0.3c0.1-0.1,0.2-0.2,0.2-0.4s0.1-0.3,0.1-0.6V0.7z"/>
		<path id="path138" inkscape:connector-curvature="0" class="st1" d="M284.6,4.7c-0.3-0.9-0.7-1.7-1-2.3c-0.3-0.6-0.7-1.1-1.1-1.4
			c-0.4-0.4-0.8-0.6-1.3-0.7c-0.5-0.1-1-0.2-1.6-0.2c-0.2,0-0.4,0-0.6,0c-0.2,0-0.4,0.1-0.6,0.1c-0.2,0.1-0.3,0.1-0.5,0.2
			c-0.1,0.1-0.2,0.1-0.3,0.2c-0.1,0.1-0.1,0.1-0.1,0.2c0,0.1-0.1,0.2-0.1,0.3c0,0.1,0,0.3-0.1,0.4c0,0.2,0,0.4,0,0.7
			c0,0.5,0,0.8,0.1,1c0.1,0.2,0.2,0.3,0.3,0.3c0.1,0,0.1,0,0.2-0.1c0.1-0.1,0.2-0.1,0.3-0.2c0.1-0.1,0.3-0.1,0.4-0.2
			c0.2-0.1,0.4-0.1,0.6-0.1c0.2,0,0.3,0,0.5,0.1c0.1,0,0.3,0.1,0.4,0.2c0.1,0.1,0.3,0.3,0.4,0.5c0.1,0.2,0.3,0.4,0.4,0.8l-5.1,10.8
			c-0.1,0.3-0.2,0.5-0.2,0.6c0,0.2,0,0.3,0.1,0.4c0.1,0.1,0.3,0.1,0.5,0.2c0.2,0,0.5,0,0.9,0c0.4,0,0.7,0,0.9,0
			c0.2,0,0.4-0.1,0.5-0.1c0.1-0.1,0.2-0.1,0.3-0.2c0.1-0.1,0.1-0.2,0.2-0.4l2.2-4.9c0.2-0.5,0.5-1,0.7-1.6c0.2-0.5,0.4-1,0.6-1.6h0
			c0.2,0.6,0.3,1.1,0.5,1.6c0.2,0.5,0.4,1.1,0.6,1.7l1.8,5c0,0.1,0.1,0.2,0.2,0.3c0.1,0.1,0.2,0.1,0.3,0.2c0.1,0,0.3,0.1,0.5,0.1
			c0.2,0,0.5,0,0.9,0c0.4,0,0.7,0,0.9,0c0.2,0,0.4-0.1,0.5-0.1c0.1-0.1,0.1-0.2,0.1-0.3c0-0.1,0-0.3-0.1-0.5L284.6,4.7z"/>
		<path id="path142" inkscape:connector-curvature="0" class="st1" d="M308.8,0.7c0-0.1,0-0.2-0.1-0.2c0-0.1-0.1-0.1-0.2-0.2
			c-0.1,0-0.3-0.1-0.5-0.1c-0.2,0-0.4,0-0.7,0c-0.3,0-0.5,0-0.7,0c-0.2,0-0.3,0.1-0.5,0.1c-0.1,0-0.2,0.1-0.2,0.2
			c0,0.1-0.1,0.1-0.1,0.2v13.1h0l-4.5-13.1c0-0.1-0.1-0.2-0.2-0.3c-0.1-0.1-0.2-0.1-0.3-0.2c-0.1,0-0.3-0.1-0.5-0.1
			c-0.2,0-0.4,0-0.7,0c-0.3,0-0.5,0-0.7,0c-0.2,0-0.3,0.1-0.5,0.1c-0.1,0-0.2,0.1-0.3,0.2c-0.1,0.1-0.1,0.1-0.1,0.2l-4.3,13.1h0V0.7
			c0-0.1,0-0.2-0.1-0.2c0-0.1-0.1-0.1-0.2-0.2c-0.1,0-0.3-0.1-0.5-0.1c-0.2,0-0.4,0-0.7,0c-0.3,0-0.5,0-0.7,0
			c-0.2,0-0.3,0.1-0.5,0.1c-0.1,0-0.2,0.1-0.2,0.2c0,0.1-0.1,0.1-0.1,0.2v14.4c0,0.4,0.1,0.7,0.3,1c0.2,0.2,0.5,0.3,0.9,0.3h2
			c0.4,0,0.7,0,0.9-0.1c0.3-0.1,0.5-0.2,0.7-0.3c0.2-0.1,0.3-0.3,0.5-0.6c0.1-0.2,0.2-0.5,0.3-0.9l3.3-9.6h0l3.4,9.6
			c0.1,0.3,0.2,0.6,0.3,0.9c0.1,0.2,0.3,0.4,0.4,0.6c0.2,0.1,0.4,0.3,0.6,0.3c0.2,0.1,0.5,0.1,0.8,0.1h2.1c0.2,0,0.4,0,0.6-0.1
			c0.2-0.1,0.3-0.1,0.4-0.3c0.1-0.1,0.2-0.2,0.2-0.4s0.1-0.3,0.1-0.6V0.7z"/>
		<path id="path146" inkscape:connector-curvature="0" class="st1" d="M322.9,8.4c0,0.8-0.1,1.6-0.2,2.3c-0.1,0.7-0.3,1.3-0.6,1.8
			s-0.7,0.9-1.2,1.1c-0.5,0.3-1.1,0.4-1.9,0.4c-0.8,0-1.4-0.2-1.9-0.5c-0.5-0.3-0.9-0.7-1.2-1.2c-0.3-0.5-0.5-1.1-0.7-1.8
			c-0.1-0.7-0.2-1.4-0.2-2.1c0-0.9,0.1-1.7,0.2-2.4c0.1-0.7,0.3-1.3,0.6-1.8c0.3-0.5,0.7-0.9,1.2-1.1c0.5-0.3,1.1-0.4,1.9-0.4
			c0.8,0,1.4,0.2,1.9,0.4c0.5,0.3,0.9,0.7,1.2,1.2c0.3,0.5,0.5,1.1,0.7,1.8C322.9,6.9,322.9,7.6,322.9,8.4 M326.2,8.5
			c0-1.3-0.2-2.5-0.5-3.6c-0.3-1.1-0.8-1.9-1.4-2.7c-0.6-0.7-1.4-1.3-2.3-1.7c-0.9-0.4-2-0.6-3.2-0.6c-1.2,0-2.2,0.2-3.1,0.5
			c-0.9,0.3-1.6,0.8-2.2,1.5c-0.6,0.7-1,1.5-1.3,2.6c-0.3,1-0.4,2.3-0.4,3.7c0,1.3,0.2,2.5,0.5,3.5c0.3,1,0.8,1.9,1.4,2.7
			c0.6,0.7,1.4,1.3,2.3,1.7c0.9,0.4,2,0.6,3.2,0.6c1.2,0,2.2-0.2,3.1-0.5c0.9-0.3,1.6-0.8,2.2-1.5c0.6-0.7,1.1-1.5,1.4-2.5
			C326.1,11.1,326.2,9.9,326.2,8.5"/>
		<path id="path150" inkscape:connector-curvature="0" class="st1" d="M347,0.7c0-0.1,0-0.2-0.1-0.2c0-0.1-0.1-0.1-0.2-0.2
			c-0.1,0-0.3-0.1-0.5-0.1c-0.2,0-0.4,0-0.7,0c-0.3,0-0.5,0-0.7,0c-0.2,0-0.3,0.1-0.5,0.1c-0.1,0-0.2,0.1-0.2,0.2
			c0,0.1-0.1,0.1-0.1,0.2v13.1h0l-4.5-13.1c0-0.1-0.1-0.2-0.2-0.3c-0.1-0.1-0.2-0.1-0.3-0.2c-0.1,0-0.3-0.1-0.5-0.1
			c-0.2,0-0.4,0-0.7,0c-0.3,0-0.5,0-0.7,0c-0.2,0-0.3,0.1-0.5,0.1c-0.1,0-0.2,0.1-0.3,0.2c-0.1,0.1-0.1,0.1-0.1,0.2l-4.3,13.1h0V0.7
			c0-0.1,0-0.2-0.1-0.2c0-0.1-0.1-0.1-0.2-0.2c-0.1,0-0.3-0.1-0.5-0.1c-0.2,0-0.4,0-0.7,0c-0.3,0-0.5,0-0.7,0
			c-0.2,0-0.3,0.1-0.5,0.1c-0.1,0-0.2,0.1-0.2,0.2c0,0.1-0.1,0.1-0.1,0.2v14.4c0,0.4,0.1,0.7,0.3,1c0.2,0.2,0.5,0.3,0.9,0.3h2
			c0.4,0,0.7,0,0.9-0.1c0.3-0.1,0.5-0.2,0.7-0.3s0.3-0.3,0.5-0.6c0.1-0.2,0.2-0.5,0.3-0.9l3.3-9.6h0l3.4,9.6
			c0.1,0.3,0.2,0.6,0.3,0.9c0.1,0.2,0.3,0.4,0.4,0.6c0.2,0.1,0.4,0.3,0.6,0.3c0.2,0.1,0.5,0.1,0.8,0.1h2.1c0.2,0,0.4,0,0.6-0.1
			c0.2-0.1,0.3-0.1,0.4-0.3c0.1-0.1,0.2-0.2,0.2-0.4s0.1-0.3,0.1-0.6V0.7z"/>
	</g>
	
		<linearGradient id="path172_1_" gradientUnits="userSpaceOnUse" x1="-68.9319" y1="-215.8101" x2="-67.9319" y2="-215.8101" gradientTransform="matrix(0 -146.0399 -146.0399 0 -31343.3828 -9863.041)">
		<stop  offset="0" style="stop-color:#D7D7D7"/>
		<stop  offset="0.9987" style="stop-color:#BDBCBC"/>
		<stop  offset="1" style="stop-color:#BDBCBC"/>
	</linearGradient>
	<path id="path172" inkscape:connector-curvature="0" class="st2" d="M172.3,203.8c-11.3-0.3-28.2-1.6-44.4-7.8l0,0
		c-0.7-0.3-0.9-0.9-0.9-1.7l0,0c0-19.6,3.5-53.1,5.5-64.1l0,0c0-0.1,0-0.1,0-0.2l0,0c8-28.5,36-41.1,40.4-42.9l0,0
		c0.4-0.2,0.8-0.2,1.2,0l0,0c4.4,1.8,32.4,14.4,40.4,42.9l0,0c0,0.1,0,0.1,0,0.2l0,0c2.1,11.1,5.5,46,5.5,64.1l0,0
		c0,0.7-0.3,1.4-0.9,1.7l0,0c-16.2,6.2-33.1,7.4-44.3,7.8l0,0c-0.3,0-0.7,0-1.2,0l0,0C173.2,203.8,172.6,203.8,172.3,203.8"/>
	<path id="path184" inkscape:connector-curvature="0" class="st1" d="M174.2,92.5c4.5,1.9,29.1,13.5,36.2,39.3c0,0.1,0,0.1,0,0.2
		c1.9,10.1,5,41.5,5.2,58.6c0,0.7-0.4,1.4-1.1,1.7c-14.1,5.4-31.2,6.7-40.7,6.7l-0.7,0c-5.3,0-26.3-1.3-40.7-6.6
		c-0.7-0.3-1.1-0.9-1.1-1.7c0.2-16.6,3.3-48.5,5.2-58.6c0-0.1,0-0.1,0-0.2c7.1-25.8,31.8-37.4,36.2-39.3
		C173.3,92.3,173.8,92.3,174.2,92.5"/>
	
		<linearGradient id="path206_1_" gradientUnits="userSpaceOnUse" x1="-67.866" y1="-215.9682" x2="-66.866" y2="-215.9682" gradientTransform="matrix(6.0228 -86.1294 -86.1294 -6.0228 -18019.4727 -6947.7495)">
		<stop  offset="0" style="stop-color:#60BCEC"/>
		<stop  offset="1" style="stop-color:#1E73B7"/>
	</linearGradient>
	<path id="path206" inkscape:connector-curvature="0" class="st3" d="M173.2,198.1c-5.2,0-25.8-1.2-39.9-6.5l0,0
		c-0.7-0.3-1.1-0.7-1-1.5l0,0c0.5-4.5,13.2-25.4,30.8-40l0,0c19.2-15.8,43.9-18.6,45.4-18.7l0,0c0.5,0,1.3,0.5,1.4,1l0,0
		c1.8,9.7,4.8,40.6,5,57.5l0,0c0,0.7-0.4,1.4-1.1,1.6l0,0c-13.9,5.3-30.6,6.5-39.9,6.5l0,0L173.2,198.1L173.2,198.1z"/>
	<path id="path218" inkscape:connector-curvature="0" class="st4" d="M197,173.5l-0.5-0.1c-0.4-0.1-0.8,0.1-1,0.5
		c-0.8,1.4-2,2.2-3.9,2.2c-0.9,0-1.7-0.2-2.4-0.7c-0.7-0.5-1.2-1.1-1.6-2c-0.4-0.9-0.6-1.9-0.6-3c0-1.7,0.4-3.1,1.2-4.1
		c0.8-1,1.9-1.5,3.4-1.5c1,0,1.9,0.3,2.7,0.8c0.6,0.4,1.1,1,1.4,1.8c0.2,0.4,0.6,0.7,1.1,0.5l0.7-0.2c0.4-0.1,0.6-0.6,0.5-1
		c-0.3-0.7-0.6-1.3-1.1-1.9c-0.6-0.7-1.4-1.3-2.3-1.7c-0.9-0.4-1.9-0.6-2.9-0.5c-1.4,0-2.7,0.4-3.7,1s-1.9,1.6-2.5,2.8
		c-0.6,1.2-0.8,2.7-0.8,4.3c0,1.1,0.2,2,0.5,2.9c0.3,0.9,0.8,1.7,1.5,2.3c0.6,0.7,1.4,1.2,2.3,1.5c0.9,0.3,1.9,0.5,3,0.5
		c1.5,0,2.8-0.4,3.9-1.2c0.8-0.6,1.4-1.3,1.8-2.2C197.8,174.2,197.5,173.6,197,173.5 M189.7,181.6c-2-0.4-3.8-1.2-5.3-2.5
		c-1.5-1.3-2.7-2.9-3.4-4.7c-0.7-1.9-0.9-3.8-0.5-5.8c0.5-2.7,1.8-5,4-6.8c0.4-0.3,0.8-0.6,1.3-0.9c2.5-1.5,5.1-2,7.9-1.5
		c2,0.4,3.8,1.2,5.3,2.5c1.5,1.3,2.6,2.9,3.3,4.8c0.7,1.9,0.9,3.8,0.5,5.9c-0.3,1.5-0.8,2.9-1.6,4.1c-0.8,1.2-1.8,2.3-3,3.1
		c-1.2,0.8-2.5,1.4-4,1.8C192.7,181.9,191.2,181.9,189.7,181.6 M189.3,183.8c1.8,0.3,3.6,0.3,5.3-0.1c1.7-0.4,3.3-1.1,4.8-2.1
		c1.4-1,2.6-2.3,3.6-3.8c1-1.5,1.6-3.2,1.9-5c0.3-1.8,0.3-3.6-0.1-5.3c-0.4-1.7-1.1-3.3-2.1-4.8c-1-1.5-2.3-2.7-3.8-3.7
		c-1.5-1-3.2-1.6-5-1.9c-2.4-0.4-4.7-0.2-7,0.6c-2.3,0.8-4.2,2.2-5.7,4c-1.6,1.8-2.6,4-3,6.4c-0.3,1.8-0.3,3.6,0.1,5.3
		c0.4,1.7,1.1,3.3,2.2,4.8c1,1.5,2.3,2.7,3.8,3.6C185.8,182.9,187.5,183.5,189.3,183.8"/>
</g>
</svg>
